<svg id="Layer_1" data-name="Layer 1" xmlns="http://www.w3.org/2000/svg" viewBox="0 0 634 192.14"><title>Air India Express logo - Brandlogos.net</title><g id="layer1"><g id="g4"><path id="path356-0-0" d="M278.11,287.93l-14.54,0v45.72l14.54,0Zm-106.47,0v45.8l14.54,0v-9.59h22.39a35.41,35.41,0,0,1,5.76,9.62l14.8,0c-1.67-4.73-3.42-9.35-8.1-13.88,0,0,7.51-3.89,7.51-14.79,0-16.14-20-17.08-21.53-17.08Zm220.06,0H360.91v45.74l14.54,0h17.85c12.94,0,26.18-6.9,26.18-22.91,0-16.59-14.39-22.89-27.79-22.89Zm-296.36,0C80.73,303.7,71.9,321.34,71.87,333.71H86.65a33.86,33.86,0,0,1,.87-7.45h33.06a33,33,0,0,1,1.08,7.45h14.78c0-12.37-8.86-30-23.47-45.76Zm49.67,0v45.76h14.54V287.95Zm145,0v45.74l14.09,0v-31c17,6.64,26.28,20.13,31.89,31l12.69,0V287.94H334.62v20.79a72.92,72.92,0,0,0-31.89-20.79Zm138.59,0v45.74l14.54,0V287.95Zm46.33,0c-14.61,15.76-23.44,33.39-23.47,45.76h14.79a33.87,33.87,0,0,1,.87-7.45h33.06a33,33,0,0,1,1.08,7.45h14.78c0-12.37-8.86-30-23.47-45.76ZM104,296.46c4.38,4.38,9.45,12,13,19.92H91A92.35,92.35,0,0,1,104,296.46Zm379.61,0c4.38,4.38,9.45,12,13,19.92h-26.1A92.36,92.36,0,0,1,483.64,296.46Zm-297.45,1.76h12.76c10.19,0,15.56.49,15.56,7.77,0,6.46-5.38,7.48-9.72,7.48h-18.6Zm189.27.4h12.75c12.29,0,16.61,5,16.61,12.2,0,10.17-8.61,12.19-16.61,12.19H375.46Z" transform="translate(-67 -287.93)" style="fill:#d8233d"/><path id="path5-4" d="M575.62,452.7c26.51,0,39.63-6.87,39.63-26.69V422.8c0-16-6.71-22.76-29.33-26.35l-10.64-1.69c-17.05-2.71-19.25-4-19.25-12v-.68c0-8.27,5.23-11.69,22-11.69h1.18c8.95,0,21.28,1.76,33.27,5.14V360a116.94,116.94,0,0,0-34.28-5.59h-1c-26,0-39.17,7.88-39.17,27v3.21c0,17.47,8.43,22.11,28.87,25l10.81,1.52c17.38,2.44,19.87,5.75,19.87,13.18v.84c0,8.61-4,12.17-22.57,12.17h-1.18c-9.12,0-21.44-2.44-33.77-5.81v15.53c10.3,3,25.16,5.64,34.62,5.64Z" transform="translate(-67 -287.93)" style="fill:#ff6423"/><path id="path5-6-2" d="M661.37,452.7c26.51,0,39.63-6.87,39.63-26.69V422.8c0-16-6.71-22.76-29.33-26.35L661,394.76c-17.05-2.71-19.25-4-19.25-12v-.68c0-8.27,5.23-11.69,22-11.69h1.18c8.95,0,21.28,1.76,33.27,5.14V360a116.94,116.94,0,0,0-34.28-5.59h-1c-26,0-39.17,7.88-39.17,27v3.21c0,17.47,8.43,22.11,28.87,25l10.81,1.52c17.38,2.44,19.87,5.75,19.87,13.18v.84c0,8.61-4,12.17-22.57,12.17h-1.18c-9.12,0-21.44-2.44-33.77-5.81v15.53c10.3,3,25.16,5.64,34.62,5.64Z" transform="translate(-67 -287.93)" style="fill:#ff6423"/><path id="path3-1-3" d="M427.16,355.11c-19.09,0-32.42,13-32.42,13V356.44H377V451h17.73V383.8a50.71,50.71,0,0,1,41.2-11.46V355.79a46.4,46.4,0,0,0-8.78-.68Z" transform="translate(-67 -287.93)" style="fill:#ff6423"/><path id="path2-5-8" d="M290,368.12V356.44H272.26V480.07H290V446.44A77.9,77.9,0,0,0,320,452.35h1.52c27.35,0,39.33-11,39.33-41.2V390.89c0-24.82-9.72-35.77-33-35.77C303.07,355.11,290,368.12,290,368.12Zm53.17,44.22c0,18.24-5.15,23.64-25.65,23.64-18.46,0-27.52-5.23-27.52-5.23V383.8s14.31-13,30.54-13,22.63,5.55,22.63,22.94Z" transform="translate(-67 -287.93)" style="fill:#ff6423"/><path id="text1-9-9-7" d="M111.22,411c13.51,0,25.84-.51,41.37-1.69V392.41c0-26.17-9-38-39.34-38H110c-31.13,0-43,13.32-43,41V412c0,27.69,13.15,40.7,45.91,40.7h2.53a119.16,119.16,0,0,0,34.11-5.64V431.52c-11.82,3.38-21.44,5.81-32.08,5.81H116c-23.3,0-30.56-7.1-30.56-23.82V410.3C95,410.81,103.29,411,111.22,411Zm1-40.65c17.22,0,22.63,5.87,22.63,22.76v3c-8.95.51-17.05.84-25.33.84-7.6,0-15.2-.17-24.15-.68v-2.36c0-16.55,7.6-23.6,24.15-23.6Z" transform="translate(-67 -287.93)" style="fill:#ff6423"/><path id="text1-9-9-5-4" d="M485.33,411c13.51,0,25.84-.51,41.37-1.69V392.41c0-26.17-9-38-39.34-38h-3.21c-31.13,0-43,13.32-43,41V412c0,27.69,13.15,40.7,45.91,40.7h2.53a119.16,119.16,0,0,0,34.11-5.64V431.52c-11.82,3.38-21.44,5.81-32.08,5.81h-1.52c-23.3,0-30.56-7.1-30.56-23.82V410.3c9.62.51,17.9.68,25.84.68Zm1-40.65c17.22,0,22.63,5.87,22.63,22.76v3c-8.95.51-17.05.84-25.33.84-7.6,0-15.2-.17-24.15-.68v-2.36c0-16.55,7.6-23.6,24.15-23.6Z" transform="translate(-67 -287.93)" style="fill:#ff6423"/><path id="path6-7-1-1-5-0-9" d="M172.83,355.88c-10.51,0-12.78,1.94-12.78,1.94V373s2.26-1.61,9.4-1.61c7.35,0,14,2,20.63,15.36l8.47,17.07-10.21,20.29c-2,4-7.38,11.8-18.49,11.8-6.75,0-9.8-1.43-9.8-1.43v15.31s2.95,1.7,13.45,1.7c15.62,0,24.65-5.58,33.44-24.93l10.32-22.73L206.89,381c-3.89-8.52-7.07-14.72-14.1-19.81C187.53,357.43,181,355.88,172.83,355.88Zm75.85,0c-4.89,0-10.23,0-16.27,2.79s-12.51,8.73-18.11,18.24l8.1,17.71c7-11.81,12.79-23.26,27.74-23.26a32.33,32.33,0,0,1,10.5,1.64V357.34A42.61,42.61,0,0,0,248.68,355.9ZM222.4,412.76l-8.1,18.14c5.6,9.51,12,14.94,18.11,17.81s11.39,2.79,16.27,2.79a42.64,42.64,0,0,0,12-1.44V434.38a36.69,36.69,0,0,1-10.5,1.43C234,435.8,229.4,424.57,222.4,412.76Z" transform="translate(-67 -287.93)" style="fill:#ff6423"/></g></g></svg>