<svg id="Layer_1" data-name="Layer 1" xmlns="http://www.w3.org/2000/svg" xmlns:xlink="http://www.w3.org/1999/xlink" viewBox="0 0 637.15 147.22"><defs><linearGradient id="linear-gradient" x1="371.81" y1="235.55" x2="371.81" y2="197.67" gradientTransform="matrix(3.29, 0, 0, -3.29, -541.41, 1108.15)" gradientUnits="userSpaceOnUse"><stop offset="0" stop-color="#9e7847"/><stop offset="1" stop-color="#dab687"/></linearGradient></defs><title>Air India logo - Brandlogos.net</title><g id="layer1"><g id="g13550"><path id="path356" d="M330.4,374.61l-18.67,0v58.69l18.67,0Zm-136.9,0V433.4l18.67,0V421h28.74a45.46,45.46,0,0,1,7.39,12.35l19,0c-2.15-6.07-4.4-12-10.4-17.81,0,0,9.64-5,9.64-19,0-20.72-25.69-21.92-27.63-21.93Zm282.93,0v0H436.92v58.72l18.67,0h22.92c16.61,0,33.6-8.86,33.6-29.41,0-21.29-18.47-29.38-35.67-29.38Zm-380.89,0C76.8,394.86,65.46,417.5,65.43,433.38h19a43.46,43.46,0,0,1,1.11-9.56H128a42.42,42.42,0,0,1,1.39,9.56h19c0-15.87-11.37-38.52-30.13-58.74Zm64,0v58.74h18.67V374.64Zm186.17,0v58.72l18.08,0V393.55c21.89,8.52,33.74,25.84,40.94,39.8l16.3,0V374.64H402.94v26.68c-4.63-5.12-18.4-19.6-40.94-26.68Zm177.68,0v58.72l18.67,0V374.64Zm59.92,0c-18.75,20.22-30.09,42.87-30.13,58.74h19a43.45,43.45,0,0,1,1.11-9.56h42.44a42.42,42.42,0,0,1,1.39,9.56h19c0-15.87-11.37-38.52-30.13-58.74ZM106.72,385.56c5.63,5.63,12.14,15.36,16.73,25.58H89.94C93.3,403.88,98.57,395.37,106.72,385.56Zm487.75,0c5.63,5.63,12.14,15.36,16.73,25.58H577.68C581,403.88,586.32,395.37,594.46,385.56Zm-382.29,2.26h16.38c16,0,20,2.59,20,10,0,9.77-11.36,9.6-11.36,9.6h-25Zm243.41.52H472c15.77,0,21.33,6.41,21.33,15.66,0,13.06-11.06,15.64-21.33,15.64H455.59Z" transform="translate(-65.43 -310.39)" style="fill:#d90d2b;opacity:0.8895900249481201;isolation:isolate"/><path id="path2662" d="M559.94,339.59a38.12,38.12,0,0,1,25.51-10.33c25.93,0,47.23,16.4,76.48,26.22,7.52-6.55,14.6-13.54,21.51-20.7-23.16-5.1-51.62-24.39-71-24.39C593.29,310.39,580.53,316.75,559.94,339.59Z" transform="translate(-65.43 -310.39)" style="fill:#fedaa0"/><path id="path2664" d="M669.76,457.61a36.51,36.51,0,0,0,11.91-24.7c1.6-22.15-8-40.09-19.75-77.43,7.07-7,13.87-14.33,21.51-20.7,3.68,25.26,20.46,53,19.05,72.54C701.24,424.66,695.05,437.91,669.76,457.61Z" transform="translate(-65.43 -310.39)" style="fill:url(#linear-gradient)"/></g></g></svg>