<svg id="Layer_1" data-name="Layer 1" xmlns="http://www.w3.org/2000/svg" viewBox="0 0 276.91 74.88"><title>SpiceJet logo - Brandlogos.net</title><path d="M316.71,381.82c-2.12,2.06-5,2.66-6.24,1.45s-.61-4.17,1.51-6.23,5-2.72,6.18-1.51.67,4.23-1.45,6.29" transform="translate(-244.4 -339.06)" style="fill:#fcd20a"/><path d="M325.31,381.52c-1.51,1.69-3.58,2.3-4.61,1.45s-.61-3.08.91-4.78,3.64-2.42,4.6-1.57.61,3.21-.91,4.9" transform="translate(-244.4 -339.06)" style="fill:#fcd800"/><path d="M289.56,370.93a11.1,11.1,0,0,0-9.51,3c-2.85,2.78-4.91,6.65-3.76,9.8a4.69,4.69,0,0,0,3.76,2.6,12.55,12.55,0,0,0,8.48-3.27,12,12,0,0,0,3.82-7.86,6.11,6.11,0,0,0-.12-1.45,4,4,0,0,0-2.67-2.84" transform="translate(-244.4 -339.06)" style="fill:#f8a81b"/><path d="M305.07,382.13c-2.85,2.72-7,3.69-8.66,2.12s-.67-5.62,2.18-8.35,6.79-3.39,8.36-1.75.91,5.26-1.88,8" transform="translate(-244.4 -339.06)" style="fill:#f9bb16"/><path d="M300,374.87a5.9,5.9,0,0,1,3-1.45,13.52,13.52,0,0,0-3,1.45" transform="translate(-244.4 -339.06)" style="fill:#f7a51c"/><path d="M323.68,368.82c-1.76,2.36-4.54,3.39-5.94,2.42s-1.39-4,.3-6.35,4.61-3.57,6-2.6,1.39,4.17-.36,6.53" transform="translate(-244.4 -339.06)" style="fill:#fcd20a"/><path d="M330.4,371.36c-1.39,1.93-3.45,2.84-4.6,2.06s-1-3.08.42-5,3.51-3,4.67-2.18.91,3.27-.48,5.14" transform="translate(-244.4 -339.06)" style="fill:#fcd800"/><path d="M301,361.32c-3.51,4.23-8.91,5.93-11.21,3.75-2.67-2.6-2.79-6.71,1.15-11.67,4.24-5.32,9-5.57,11.45-3.57s2.12,7.26-1.39,11.49" transform="translate(-244.4 -339.06)" style="fill:#f9b517"/><path d="M314.16,365.49c-2.61,4.35-6.6,4.42-8.36,3s-1.27-5.57,1.27-8.59,6.54-4.23,8.18-2.6c1.33,1.33.91,4.78-1.09,8.17" transform="translate(-244.4 -339.06)" style="fill:#fac113"/><path d="M290,347.41c0,.6-.06,1.27-.12,1.88.06-.61.12-1.27.12-1.87" transform="translate(-244.4 -339.06)" style="fill:#f7a51c"/><path d="M285.93,339.79c-9.21-3.87-18.48,8.59-17.75,15.61.61,5.38,4,7.56,8.85,6.83a.37.37,0,0,1,.24-.06c5.09-.67,9.33-4.84,11.27-8.47a14.14,14.14,0,0,0,1.39-4.36c.06-.6.12-1.27.12-1.87-.06-3.33-1.27-6.47-4.12-7.68" transform="translate(-244.4 -339.06)" style="fill:#f7a11c"/><path d="M266.6,367.67a15.43,15.43,0,0,0-5.94,2.42,17.68,17.68,0,0,0-6.85,6.83c-1.76,3.39-1.51,6.47-.06,8.59a5.53,5.53,0,0,0,2.54,2.24,11.93,11.93,0,0,0,1.58.48,11,11,0,0,0,5.39-.18c5.82-1.57,12.48-7.92,12.42-13.91s-4.24-7.5-9.09-6.47" transform="translate(-244.4 -339.06)" style="fill:#f7991d"/><path d="M323.61,390.77c-1.64,1.57-3.7,2.06-4.67,1.15s-.42-3.08,1.21-4.66,3.76-2.18,4.73-1.27.36,3.21-1.27,4.78" transform="translate(-244.4 -339.06)" style="fill:#fcd800"/><path d="M313.56,393.74c-2.18,1.93-5,2.42-6.12,1.15s-.24-3.87,2-5.81,4.85-2.42,6-1.15.36,3.87-1.88,5.81" transform="translate(-244.4 -339.06)" style="fill:#fcd20a"/><path d="M300.11,397.85c-3,2.54-6.67,3.21-8.18,1.51s-.3-5.14,2.67-7.68,6.48-3.21,8-1.51.48,5.14-2.48,7.68" transform="translate(-244.4 -339.06)" style="fill:#f9bd15"/><path d="M283.56,392.17c-5.94-1.69-15.33,5.87-14,11.79.3,1.33,2.18,2.54,3.64,2.72,5.94.6,12.6-5.68,13-10.22a13.76,13.76,0,0,1-.06-1.57,3.75,3.75,0,0,0-2.55-2.72" transform="translate(-244.4 -339.06)" style="fill:#f9a81a"/><path d="M267.63,398.76c-1.09-4.48-6.54-4.11-10.18-3.08a16.94,16.94,0,0,0-4,1.51,18.77,18.77,0,0,0-4.85,3.39c-1.76,1.69-4.73,5.44-4.12,9.07.61,3.81,5.45,5,9.76,3.93,5.21-1.15,15-7.86,13.39-14.82" transform="translate(-244.4 -339.06)" style="fill:#f79a1d"/><path d="M358.7,367.43c-.79-2.3-.73-5.5-4.54-5.44s-5.51,2.54-5.51,5.5c0,4.78,12.12,5.68,13,15.36.55,5.81-5.09,15.36-16.42,15.48-4.61,0-10.36-2.06-10.42-11.73l8.18-1.75c.06,2.42-.12,6.77,4.54,6.77,3.57,0,5.39-3.33,5.69-6,.67-6-12.84-7.8-12.78-15.54.12-7.26,4.79-14.7,15.94-14.64s9.57,10,9.57,10l-7.27,2Z" transform="translate(-244.4 -339.06)" style="fill:#ff0006"/><path d="M508.11,373.84h-3.7l1.46-5.87h3.7l2.73-10.89h7.15L516.71,368h4.61l-1.45,5.87h-4.6l-4,16a1.53,1.53,0,0,0,.48,1.76,3.61,3.61,0,0,0,2.18.6c.48,0,1-.06,1.45-.06l-1.51,6.11a32.38,32.38,0,0,1-4.18.3,8.13,8.13,0,0,1-5.21-1.39c-1.09-1-1.39-2.6-.91-4.84l4.54-18.51ZM486,378.13h8.36l.42-1.75a4.34,4.34,0,0,0-.18-3.33,3.12,3.12,0,0,0-2.85-1.21,5.16,5.16,0,0,0-3.51,1.21,6.68,6.68,0,0,0-1.88,3.33ZM500,384H484.48l-1,4.17c-.36,1.57-.24,2.66.36,3.39a3.35,3.35,0,0,0,2.73,1.09,5.24,5.24,0,0,0,3.58-1.27,6.38,6.38,0,0,0,1.7-3.15H499a13.52,13.52,0,0,1-13.87,10.28c-3.45-.06-5.94-1-7.45-3s-1.88-4.66-1.09-8.17l2.54-10.28a14.75,14.75,0,0,1,5.15-8.1,14.4,14.4,0,0,1,9-3c3.39.06,5.82,1,7.39,2.9s2,4.48,1.21,7.74L500,384Zm-56.65-5.87h8.36l.42-1.75a4.34,4.34,0,0,0-.18-3.33,3.17,3.17,0,0,0-2.91-1.21,4.9,4.9,0,0,0-3.45,1.21,6.18,6.18,0,0,0-1.82,3.33ZM457.4,384H441.89l-1,4.17c-.36,1.57-.24,2.66.36,3.39a3.35,3.35,0,0,0,2.73,1.09,5,5,0,0,0,3.51-1.27,6,6,0,0,0,1.76-3.15h7.15a14.11,14.11,0,0,1-5,7.56,14.57,14.57,0,0,1-8.91,2.72c-3.45-.06-5.94-1-7.45-3s-1.88-4.66-1.09-8.17l2.61-10.22a14.74,14.74,0,0,1,5.15-8.1,14.4,14.4,0,0,1,9-3c3.33.06,5.82,1,7.39,2.9s2,4.48,1.27,7.74Zm-25.45-6.59h-7.09l.36-1.39a2.85,2.85,0,0,0-.48-2.78,3.69,3.69,0,0,0-2.79-1,5.37,5.37,0,0,0-3.27,1A4.89,4.89,0,0,0,416.8,376l-3.15,12.46a3,3,0,0,0,.42,2.78,3.77,3.77,0,0,0,2.79.91,5.77,5.77,0,0,0,3.27-.91,4.55,4.55,0,0,0,1.82-2.78l.48-1.93h7.15v.12c-1.09,4.11-2.85,7.14-5.27,9a13.65,13.65,0,0,1-9,2.78c-3.57.06-6.18-.91-7.63-2.78s-1.7-4.9-.73-9l2.18-8.77c1.09-4.11,2.85-7.14,5.27-9a14.13,14.13,0,0,1,9-2.84c3.51-.06,6,.91,7.51,2.72s1.94,4.66,1,8.65m-61.86-10.83h6.54l-1,3.81h.12a15.36,15.36,0,0,1,3.82-2.9,10.65,10.65,0,0,1,4.85-1.45c2.73,0,4.48,1.09,5.21,3.21s.55,5.2-.55,9.25l-1.94,7.62c-1,4-2.36,7.14-4.18,9.25a8.68,8.68,0,0,1-6.79,3.21,5.33,5.33,0,0,1-2.79-.79,17.74,17.74,0,0,1-3.45-2.66l-4.42,17.42h-7l11.57-46Zm5.33,7.08-4.36,17.18a4.14,4.14,0,0,0,3.76,2.24,3.49,3.49,0,0,0,2.85-1.39c.91-1,1.82-3,2.54-6.11l1.7-6.65c.73-3,.91-5.08.48-6a1.94,1.94,0,0,0-2.12-1.39C378.75,371.42,377.18,372.15,375.42,373.66Z" transform="translate(-244.4 -339.06)" style="fill:#ff0006;fill-rule:evenodd"/><path d="M463.39,388.29l5.09-20.14,2.79-11.07h7.15l-2.79,11.07L467,401.54c-1.09,4.11-2.85,7.08-5.27,9a14,14,0,0,1-9,2.84c-3.64,0-6.18-.91-7.63-2.84s-1.76-4.9-.73-9l7.21-.06-.55,1.88a2.85,2.85,0,0,0,.48,2.72,3.78,3.78,0,0,0,2.79,1,5.8,5.8,0,0,0,3.27-1,4.74,4.74,0,0,0,1.88-2.72l.67-2.54,3.33-12.46Z" transform="translate(-244.4 -339.06)" style="fill:#ff0006"/><path d="M406.08,363.68H399l1.63-6.59h7.09Zm-7.94,2.9h7.15l-7.88,31.33h-7.15Z" transform="translate(-244.4 -339.06)" style="fill:#ff0006;fill-rule:evenodd"/></svg>